<svg xmlns="http://www.w3.org/2000/svg" width="24" height="24" viewBox="0 0 24 24">
    <defs>
        <filter id="prefix__a">
            <feColorMatrix in="SourceGraphic" values="0 0 0 0 0.466667 0 0 0 0 0.466667 0 0 0 0 0.466667 0 0 0 1.000000 0"/>
        </filter>
    </defs>
    <g fill="none" fill-rule="evenodd" filter="url(#prefix__a)" transform="translate(-244)">
        <g stroke="#FFF" stroke-width="1.5">
            <path d="M12 10c1.104 0 2 .896 2 2s-.896 2-2 2-2-.896-2-2 .896-2 2-2z" transform="translate(244)"/>
            <path d="M14.97 6.804c-.68-.396-1.032-1.135-.978-1.874.027-.363-.169-.717-.523-.786C12.993 4.051 12.503 4 12 4c-.503 0-.993.051-1.469.144-.354.069-.55.423-.523.786.054.739-.298 1.478-.977 1.874-.68.396-1.49.335-2.097-.083-.297-.205-.7-.211-.934.065-.637.749-1.137 1.62-1.466 2.572-.119.343.086.693.41.851.661.322 1.117 1 1.117 1.791 0 .791-.456 1.47-1.116 1.791-.325.159-.53.508-.41.851.328.953.828 1.823 1.465 2.572.235.276.637.271.934.066.607-.419 1.418-.479 2.097-.083.679.395 1.031 1.134.977 1.873-.027.363.169.718.523.787.476.093.966.143 1.469.143.503 0 .993-.05 1.469-.143.354-.069.55-.424.523-.787-.054-.739.298-1.478.977-1.873.68-.396 1.49-.336 2.096.083.298.205.7.21.935-.066.637-.749 1.137-1.619 1.466-2.572.119-.343-.086-.692-.41-.851-.661-.321-1.117-1-1.117-1.791 0-.791.456-1.469 1.116-1.791.325-.158.53-.508.41-.851-.328-.952-.828-1.823-1.465-2.572-.235-.276-.637-.27-.935-.065-.606.418-1.417.479-2.096.083z" transform="translate(244)"/>
        </g>
    </g>
</svg>
