<svg xmlns="http://www.w3.org/2000/svg" xmlns:xlink="http://www.w3.org/1999/xlink" width="52" height="16" viewBox="0 0 52 16">
    <defs>
        <path id="prefix__b" d="M0.159 0.027L14 0.027 14 12.327 0.159 12.327z"/>
        <path id="prefix__d" d="M0 0L16.852 0 16.852 16 0 16z"/>
        <path id="prefix__f" d="M0.354 0L6.491 0 6.491 12.192 0.354 12.192z"/>
        <filter id="prefix__a">
            <feColorMatrix in="SourceGraphic" values="0 0 0 0 0.251296 0 0 0 0 0.843052 0 0 0 0 1.000000 0 0 0 1.000000 0"/>
        </filter>
    </defs>
    <g fill="none" fill-rule="evenodd" filter="url(#prefix__a)" transform="translate(-32 -36)">
        <g transform="translate(32 36)">
            <g transform="translate(38)">
                <mask id="prefix__c" fill="#fff">
                    <use xlink:href="#prefix__b"/>
                </mask>
                <path fill="#BB5CF2" d="M13.76 5.735c-.16-.161-.358-.242-.595-.242-.154 0-.302.033-.445.099-.142.066-.344.194-.604.385L10.16 7.43l2.35-5.735.09-.233c.094-.215.142-.412.142-.592 0-.239-.087-.44-.258-.6-.172-.162-.382-.243-.631-.243-.569 0-.996.329-1.28.987l-.089.233L7.63 8.256c-.647 1.547-2.148 1.971-2.61 1.971-.215 0-.449-.003-.62-.004h-.543c-.202 0-.415-.016-.64-.045-.225-.03-.39-.063-.497-.099-.344-.155-.516-.49-.516-1.004 0-.252.041-.49.124-.718.083-.227.196-.43.338-.61.142-.18.305-.323.489-.43.184-.108.37-.162.56-.162.166 0 .305.057.418.17.112.114.162.255.15.422v.394c-.011.204.057.377.205.521.148.144.34.215.578.215.343 0 .622-.137.835-.412.214-.275.32-.622.32-1.04 0-.635-.21-1.142-.63-1.525-.422-.383-.976-.574-1.663-.574-.51 0-.992.107-1.448.322-.457.216-.857.509-1.2.88-.344.37-.617.8-.818 1.29C.259 8.31.159 8.824.159 9.362c0 .42.059.799.178 1.14.118.34.287.63.506.87.22.239.48.427.782.564.302.138.631.207.987.207h1.41c.036 0 .072-.002.108-.005v.005H5.15c1.51 0 3.4-.969 4.235-2.75.05-.107.072-.18.116-.29l.145-.362 2.009 3.049.106.161c.154.252.368.377.64.377.143 0 .279-.03.41-.09.13-.06.245-.137.346-.233.1-.095.18-.203.24-.323.059-.12.089-.245.089-.376 0-.108-.018-.204-.054-.288-.035-.083-.106-.209-.213-.376l-1.333-2.117 1.28-.968c.331-.24.554-.443.666-.61.113-.167.17-.37.17-.61 0-.239-.08-.44-.24-.6" mask="url(#prefix__c)"/>
            </g>
            <mask id="prefix__e" fill="#fff">
                <use xlink:href="#prefix__d"/>
            </mask>
            <path fill="#BB5CF2" d="M13.202 3.892h-.688L13.22 2.1h.582c.235 0 .423.056.564.17.14.114.211.272.211.475 0 .766-.458 1.148-1.374 1.148m3.267.296c.255-.496.383-1.031.383-1.605 0-.885-.264-1.536-.791-1.955C15.533.209 14.712 0 13.599 0h-3.537c-.38 0-.703.12-.97.359-.266.239-.4.532-.4.878 0 .55.32.838.96.862h1.174l-3.004 7.48c-.107.275-.223.547-.347.816-.125.269-.246.523-.365.762-.201.407-.379.738-.533.996-.154.256-.308.469-.462.636-.557.598-1.15.897-1.778.897-.58 0-1.04-.182-1.377-.547-.338-.365-.507-.858-.507-1.48 0-.538.11-1.046.33-1.525.218-.478.517-.899.897-1.264.379-.365.826-.66 1.342-.888.515-.227 1.075-.359 1.68-.394.699-.037 1.187-.144 1.466-.324.278-.179.418-.466.418-.86 0-.347-.142-.616-.427-.808-.284-.19-.687-.287-1.208-.287-.937 0-1.826.177-2.667.53-.841.353-1.58.828-2.213 1.425-.634.598-1.138 1.292-1.51 2.081-.374.79-.56 1.627-.56 2.512 0 .621.097 1.186.292 1.694.196.509.474.945.836 1.31.361.365.797.646 1.306.843.51.197 1.073.296 1.69.296 1.172 0 2.186-.359 3.039-1.077.853-.717 1.605-1.84 2.257-3.372.095-.215.216-.508.365-.878l.435-1.095 1.458-3.587h1.19c.605 0 1.106-.047 1.503-.144.397-.095.743-.244 1.04-.448.45-.31.802-.714 1.057-1.21" mask="url(#prefix__e)"/>
            <g transform="translate(15)">
                <mask id="prefix__g" fill="#fff">
                    <use xlink:href="#prefix__f"/>
                </mask>
                <path fill="#BB5CF2" d="M3.891 10.273h-1.12L6.26 1.668l.107-.233c.082-.227.124-.43.124-.61 0-.227-.086-.421-.258-.583C6.061.081 5.857 0 5.62 0c-.581 0-1.007.329-1.28.987l-.089.233L.62 10.147c-.083.192-.148.371-.195.539-.048.167-.071.31-.071.43 0 .323.13.583.391.78.26.198.598.296 1.013.296h1.76c.344 0 .64-.11.889-.331.249-.222.373-.488.373-.799 0-.502-.296-.765-.889-.789" mask="url(#prefix__g)"/>
            </g>
            <path fill="#BB5CF2" d="M24.828 9.302c-.154.338-.344.591-.569.758-.107.095-.219.153-.338.178-.118.024-.284.035-.498.035-.734 0-1.102-.327-1.102-.981 0-.261.048-.517.143-.767.094-.249.222-.469.382-.659.16-.19.343-.342.551-.454.207-.114.423-.17.649-.17.296 0 .539.101.728.303.19.202.285.457.285.767 0 .32-.077.65-.231.99m1.475-3.118c-.26-.252-.572-.449-.933-.593-.362-.143-.756-.215-1.182-.215-.533 0-1.037.111-1.511.332-.474.221-.895.518-1.262.888-.368.37-.658.804-.871 1.3-.213.497-.32 1.014-.32 1.552 0 .502.104.966.31 1.39.208.425.496.763.863 1.014.202.131.424.221.667.268.242.049.625.072 1.146.072.545 0 .969-.029 1.271-.089.302-.06.584-.173.845-.341.26-.168.5-.383.72-.646.219-.262.408-.55.568-.861.16-.311.285-.64.374-.987.088-.347.133-.693.133-1.04 0-.418-.071-.801-.213-1.147-.143-.348-.344-.647-.605-.897M32.4 5.502h-.48l.088-.16c.072-.156.125-.309.16-.458.036-.15.054-.278.054-.386 0-.239-.083-.436-.25-.591-.165-.156-.372-.234-.621-.234-.57 0-.99.33-1.262.987l-.107.233-.23.609h-.605c-.344 0-.64.11-.888.332-.25.22-.374.487-.374.798 0 .526.367.79 1.102.79L27.974 9.95l-.16.377c-.107.25-.16.49-.16.717 0 .347.127.625.382.834.255.21.602.314 1.04.314h1.76c.344 0 .64-.11.889-.331.249-.222.373-.488.373-.799 0-.502-.296-.765-.889-.789h-1.173l1.156-2.852h.835c.344 0 .64-.114.889-.34.249-.228.373-.497.373-.808 0-.514-.296-.771-.889-.771M36.595 10.273h-1.191l1.788-4.5.088-.252c.095-.215.143-.412.143-.592 0-.238-.086-.439-.258-.6-.172-.162-.382-.242-.631-.242-.593 0-1.025.328-1.298.986l-.089.233-1.982 4.967c-.072.192-.12.332-.143.422-.024.09-.035.194-.035.314 0 .382.142.675.426.879.285.203.694.304 1.227.304h1.582c.343 0 .64-.11.889-.331.249-.222.373-.488.373-.799 0-.502-.296-.765-.889-.789M38.976 1.346c0-.351-.12-.648-.36-.89-.241-.244-.535-.365-.884-.365-.336 0-.621.121-.856.364-.234.243-.351.534-.351.873 0 .34.12.63.36.873.24.242.529.364.865.364.349 0 .64-.119.874-.355.235-.236.352-.524.352-.864"/>
        </g>
    </g>
</svg>
